<mxfile host="app.diagrams.net" modified="2024-02-29T07:12:03.651Z" agent="Mozilla/5.0 (Windows NT 10.0; Win64; x64) AppleWebKit/537.36 (KHTML, like Gecko) Chrome/122.0.0.0 Safari/537.36" etag="SWtAvyxGJ4_p-i6Y2qf4" version="23.1.8" type="device">
  <diagram name="Page-1" id="757vi46jVHQDNovQB2c3">
    <mxGraphModel dx="1970" dy="460" grid="1" gridSize="10" guides="1" tooltips="1" connect="1" arrows="1" fold="1" page="1" pageScale="1" pageWidth="850" pageHeight="1100" math="0" shadow="0">
      <root>
        <mxCell id="0" />
        <mxCell id="1" parent="0" />
        <mxCell id="IdOtUdWx-Dkxds7xAZGA-1" value="" style="rounded=0;whiteSpace=wrap;html=1;strokeColor=#000099;" parent="1" vertex="1">
          <mxGeometry x="-40" y="50" width="860" height="390" as="geometry" />
        </mxCell>
        <mxCell id="LXKvnrX-jdmx19rkcMqV-2" value="" style="rounded=0;whiteSpace=wrap;html=1;" vertex="1" parent="1">
          <mxGeometry x="220" y="140" width="380" height="20" as="geometry" />
        </mxCell>
        <mxCell id="LXKvnrX-jdmx19rkcMqV-3" value="" style="rounded=0;whiteSpace=wrap;html=1;rotation=90;" vertex="1" parent="1">
          <mxGeometry x="-175" y="205" width="370" height="80" as="geometry" />
        </mxCell>
        <mxCell id="LXKvnrX-jdmx19rkcMqV-4" value="" style="endArrow=none;html=1;rounded=0;exitX=0.032;exitY=-0.075;exitDx=0;exitDy=0;exitPerimeter=0;" edge="1" parent="1" source="LXKvnrX-jdmx19rkcMqV-3">
          <mxGeometry width="50" height="50" relative="1" as="geometry">
            <mxPoint x="140" y="120" as="sourcePoint" />
            <mxPoint x="820" y="70" as="targetPoint" />
          </mxGeometry>
        </mxCell>
        <mxCell id="LXKvnrX-jdmx19rkcMqV-5" value="" style="rounded=0;whiteSpace=wrap;html=1;" vertex="1" parent="1">
          <mxGeometry x="640" y="90" width="120" height="20" as="geometry" />
        </mxCell>
      </root>
    </mxGraphModel>
  </diagram>
</mxfile>
